<?xml version="1.0" encoding="iso-8859-1"?>
<!-- Generator: Adobe Illustrator 17.1.0, SVG Export Plug-In . SVG Version: 6.00 Build 0)  -->
<!DOCTYPE svg PUBLIC "-//W3C//DTD SVG 1.1//EN" "http://www.w3.org/Graphics/SVG/1.1/DTD/svg11.dtd">
<svg version="1.1" id="Capa_1" xmlns="http://www.w3.org/2000/svg" xmlns:xlink="http://www.w3.org/1999/xlink" x="0px" y="0px"
	 viewBox="0 0 457.385 457.385" style="enable-background:new 0 0 457.385 457.385;" xml:space="preserve">
<g>
	<path d="M453.99,132.192l-12.287-9.566c-0.957-0.742-0.78-1.976-0.78-2.634v-21.58c0-5.514-4.486-10-10-10h-13.605
		c-4.708,0-8.657,3.275-9.713,7.664l-28.128-21.901c-1.888-1.47-4.318-2.279-6.842-2.279c-2.524,0-4.955,0.81-6.842,2.279
		l-74.514,58.018c-4.344,3.383-3.427,7.299-3.043,8.419c0.385,1.12,2.067,4.773,7.573,4.773h4.565c0,0,1.626-0.001,1.626,1.749
		c0,14.125,0,48.294,0,60c0,3.167-1.663,3.701-1.663,3.701c-2.2,0-5.202,1.34-6.671,2.977l-38.547,42.966
		c-1.469,1.638-2.039,4.663-1.266,6.723l15.929,42.44c0.773,2.06-0.212,4.536-2.188,5.502l-32.952,16.11
		c-1.977,0.967-3.803,3.545-4.059,5.729l-1.874,16.015c-0.256,2.184-1.684,2.648-3.175,1.03l-20.429-22.182
		c-1.491-1.618-1.134-3.813,0.791-4.876l27.546-15.217c1.926-1.064,2.463-3.405,1.194-5.201l-29.123-41.228
		c-1.269-1.797-2.656-5.032-3.081-7.191l-7.821-39.674c-0.425-2.159-2.573-3.925-4.773-3.925c0,0-4.406,0-5.874,0
		c-3.333,0-3.747-2.784-3.747-2.784v-61.5c0,0-0.003-1.166,1.08-1.166c1.278,0,5.111,0,5.111,0c5.505,0,7.188-3.653,7.573-4.773
		c0.384-1.12,1.301-5.036-3.043-8.419l-12.287-9.566c-0.957-0.742-0.78-1.976-0.78-2.634v-21.58c0-5.514-4.486-10-10-10h-13.605
		c-4.708,0-8.657,3.275-9.713,7.664l-28.128-21.901c-1.888-1.47-4.318-2.279-6.842-2.279s-4.955,0.81-6.842,2.279l-74.514,58.018
		c-4.344,3.383-3.427,7.299-3.043,8.419c0.385,1.12,2.067,4.773,7.573,4.773h4.565c0,0,1.626-0.001,1.626,1.749
		c0,13.227,0,47.281,0,61.167c0,0.941,0.185,2.534-1.981,2.534H4c-2.2,0-4,1.8-4,4v158.855c0,2.2,1.8,4,4,4h7c2.2,0,4-1.8,4-4
		c0,0,0-78.417,0-104.556c0-1.75,1.962-1.755,1.962-1.755h173.001c1.333,0,2.028,1.102,2.028,1.102l20.727,29.343
		c1.27,1.796,0.732,4.137-1.193,5.2l-29.604,16.354c-1.926,1.064-2.282,3.258-0.792,4.876l55.508,60.271
		c1.49,1.618,2.919,1.154,3.174-1.03l4.718-40.333c0.256-2.185,2.082-4.764,4.059-5.729l37.839-18.501
		c1.976-0.966,2.961-3.442,2.188-5.502l-17.285-46.051h166.414v106.311c0,2.2,1.8,4,4,4h7c2.2,0,4-1.8,4-4V214.834c0-2.2-1.8-4-4-4
		c0,0-2.194,0-2.926,0c-2.875,0-2.547-2.451-2.547-2.451V146.55c0,0-0.003-1.166,1.08-1.166c1.278,0,5.111,0,5.111,0
		c5.505,0,7.188-3.653,7.573-4.773C457.418,139.491,458.335,135.575,453.99,132.192z M99.236,189.19
		c-0.001-0.039-0.015-3.987,2.439-6.468c1.572-1.59,4.062-2.395,7.401-2.395c9.604,0,10.722,6.293,10.757,8.929
		c-0.027,2.22-0.05,5.852-0.05,8.072v10.889c0,0,0.429,2.618-2.738,2.618c-3.771,0-10.628,0-15.083,0
		c-2.917,0-2.587-2.284-2.587-2.284v-11.223C99.376,195.066,99.312,191.386,99.236,189.19z M156.263,101.133
		c0-0.844,0.866-0.722,0.866-0.722h7.843c0,0,0.896,0.003,0.896,1.034c0,2.441,0,6.352,0,8.469c0,1.156-0.786,0.644-0.786,0.644
		l-7.892-6.553c-0.369-0.346-0.928-0.685-0.928-1.954C156.263,102.051,156.263,101.363,156.263,101.133z M46.955,135.397
		c-0.58-0.438-1.492-1.264,0.157-2.703l60.137-46.823c0,0,0.964-0.904,2.331-0.904c1.466,0,2.251,0.842,2.251,0.842l61.273,47.708
		c0.858,0.784,0.153,1.174-0.234,1.42c-2.795,1.775-4.655,4.898-4.655,8.448v64.666c0,0,0.33,2.784-3.586,2.784
		c-7.334,0-21.104,0-29.334,0c-3.583,0-3.512-2.951-3.512-2.951v-10.556c0-2.18,0.022-5.747,0.049-7.925
		c0.011-0.884-0.065-8.809-6.023-14.842c-4.086-4.137-9.716-6.234-16.733-6.234c-8.414,0-13.391,3.324-16.086,6.112
		c-5.884,6.09-5.78,14.194-5.749,15.098c0.074,2.148,0.134,5.644,0.134,7.791v11.639c0,0,0.253,1.868-2.08,1.868
		c-7.979,0-23.418,0-31.917,0c-3,0-2.435-2.201-2.435-2.201v-65.249C50.944,140.124,49.376,137.224,46.955,135.397z M15,229.834
		c0-2.2,1.8-4,4-4h158.505c2.2,0,4.348,1.766,4.774,3.925l4.709,23.889c0,0,0.329,1.73-2.421,1.73c-41.734,0-124.512,0-166.938,0
		c-3.063,0-2.629-2.432-2.629-2.432V229.834z M419.317,101.133c0-0.844,0.866-0.722,0.866-0.722h7.843c0,0,0.896,0.003,0.896,1.034
		c0,2.441,0,6.352,0,8.469c0,1.156-0.785,0.644-0.785,0.644l-7.893-6.553c-0.369-0.346-0.928-0.685-0.928-1.954
		C419.317,102.051,419.317,101.363,419.317,101.133z M362.29,189.19c-0.001-0.039-0.015-3.987,2.439-6.468
		c1.572-1.59,4.062-2.395,7.401-2.395c9.603,0,10.722,6.293,10.757,8.929c-0.027,2.22-0.05,5.852-0.05,8.072v11.431
		c0,0,0.229,2.076-1.958,2.076c-3.872,0-12.425,0-15.813,0c-2.875,0-2.637-2.139-2.637-2.139v-11.368
		C362.43,195.066,362.366,191.386,362.29,189.19z M276.524,255.378l23.833-26.566c1.469-1.638,4.471-2.977,6.671-2.977h126.713
		c2.2,0,4,1.8,4,4v25.544H276.524z M397.129,210.834c-2.688,0-2.292-1.951-2.292-1.951v-11.556c0-2.18,0.022-5.747,0.049-7.925
		c0.011-0.884-0.065-8.809-6.023-14.842c-4.086-4.137-9.716-6.234-16.733-6.234c-8.414,0-13.391,3.324-16.086,6.112
		c-5.884,6.09-5.78,14.194-5.749,15.098c0.074,2.148,0.134,5.644,0.134,7.791v11.494c0,0,0.262,2.013-2.551,2.013
		c-7.875,0-22.987,0-31.5,0c-2.375,0-2.381-1.951-2.381-1.951v-65.499c0-3.26-1.568-6.16-3.989-7.987
		c-0.58-0.438-1.492-1.264,0.157-2.703l60.137-46.823c0,0,0.964-0.904,2.331-0.904c1.466,0,2.251,0.842,2.251,0.842l61.273,47.708
		c0.858,0.784,0.153,1.174-0.234,1.42c-2.795,1.775-4.655,4.898-4.655,8.448v65.499c0,0,0.047,1.951-2.391,1.951
		C420.941,210.834,405.664,210.834,397.129,210.834z"/>
	<path d="M47.145,283.874c-8.727,0-15.827,7.1-15.827,15.826c0,8.727,7.1,15.826,15.827,15.826c8.727,0,15.826-7.1,15.826-15.826
		C62.971,290.974,55.872,283.874,47.145,283.874z"/>
	<path d="M106.43,274.048c-8.727,0-15.826,7.1-15.826,15.826s7.1,15.826,15.826,15.826c8.727,0,15.827-7.1,15.827-15.826
		S115.157,274.048,106.43,274.048z"/>
	<path d="M145.007,297.604c-8.727,0-15.827,7.1-15.827,15.826c0,8.728,7.1,15.827,15.827,15.827c8.727,0,15.826-7.1,15.826-15.827
		C160.833,304.703,153.733,297.604,145.007,297.604z"/>
</g>
<circle style="stroke:#000000;stroke-width:12;stroke-miterlimit:10;" cx="312.33" cy="309.527" r="9.826"/>
<circle style="stroke:#000000;stroke-width:12;stroke-miterlimit:10;" cx="372.634" cy="289.874" r="9.826"/>
<circle style="stroke:#000000;stroke-width:12;stroke-miterlimit:10;" cx="411.942" cy="319.353" r="9.826"/>
<g>
</g>
<g>
</g>
<g>
</g>
<g>
</g>
<g>
</g>
<g>
</g>
<g>
</g>
<g>
</g>
<g>
</g>
<g>
</g>
<g>
</g>
<g>
</g>
<g>
</g>
<g>
</g>
<g>
</g>
</svg>
