<?xml version="1.0"?>
<svg xmlns="http://www.w3.org/2000/svg" id="Layer_1" enable-background="new 0 0 511.819 511.819" height="512px" viewBox="0 0 511.819 511.819" width="512px" class=""><g><g><g><path d="m240.902 128.747h30v190.611h-30z" fill="#00cc76" data-original="#00CC76" class="" data-old_color="#00cc76" style="fill:#000000"/></g><path d="m255.91 128.747h14.992v190.611h-14.992z" fill="#00aa95" data-original="#00AA95" class="active-path" data-old_color="#00aa95" style="fill:#010101"/><g><path d="m404.897 250.747h30v68.611h-30z" fill="#00cc76" data-original="#00CC76" class="" data-old_color="#00cc76" style="fill:#000000"/></g><g><path d="m404.897 250.747h30v68.611h-30z" fill="#00aa95" data-original="#00AA95" class="active-path" data-old_color="#00aa95" style="fill:#010101"/></g><g><path d="m76.906 250.747h30v68.611h-30z" fill="#00cc76" data-original="#00CC76" class="" data-old_color="#00cc76" style="fill:#000000"/></g><path d="m288.657 143.747c32.625 0 59.167-26.542 59.167-59.167v-39.285h-47.756c-17.54 0-33.314 7.68-44.159 19.844-10.844-12.165-26.618-19.844-44.159-19.844h-47.756v39.285c0 32.625 26.542 59.167 59.167 59.167z" fill="#a5e887" data-original="#A5E887" class="" data-old_color="#a5e887" style="fill:#000000"/><path d="m124.662 265.747c32.625 0 59.167-26.542 59.167-59.167v-39.285h-47.756c-17.54 0-33.314 7.679-44.158 19.844-10.844-12.165-26.618-19.844-44.159-19.844h-47.756v39.285c0 32.625 26.542 59.167 59.167 59.167z" fill="#a5e887" data-original="#A5E887" class="" data-old_color="#a5e887" style="fill:#000000"/><path d="m0 376.52h511.819v90.004h-511.819z" fill="#8c4a50" data-original="#8C4A50" class="" data-old_color="#8c4a50" style="fill:#000000"/><path d="m255.91 376.52h255.91v90.004h-255.91z" fill="#66333e" data-original="#66333E" class="" data-old_color="#66333e" style="fill:#000000"/><path d="m0 304.357h511.819v102.163h-511.819z" fill="#c1674c" data-original="#C1674C" class="" data-old_color="#c1674c" style="fill:#000000"/><path d="m452.645 265.747c32.625 0 59.167-26.542 59.167-59.167v-39.285h-47.756c-17.54 0-33.314 7.679-44.158 19.844-10.844-12.165-26.618-19.844-44.159-19.844h-47.755v39.285c0 32.625 26.542 59.167 59.167 59.167z" fill="#a5e887" data-original="#A5E887" class="" data-old_color="#a5e887" style="fill:#000000"/><path d="m452.645 265.747c32.625 0 59.167-26.542 59.167-59.167v-39.285h-47.756c-17.54 0-33.314 7.679-44.158 19.844-10.844-12.165-26.618-19.844-44.159-19.844h-47.755v39.285c0 32.625 26.542 59.167 59.167 59.167z" fill="#00cc76" data-original="#00CC76" class="" data-old_color="#00cc76" style="fill:#000000"/><path d="m347.824 84.58v-39.285h-47.756c-17.54 0-33.314 7.68-44.159 19.844v78.607h32.748c32.625.001 59.167-26.541 59.167-59.166z" fill="#00cc76" data-original="#00CC76" class="" data-old_color="#00cc76" style="fill:#000000"/><path d="m255.91 304.357h255.91v102.163h-255.91z" fill="#8c4a50" data-original="#8C4A50" class="" data-old_color="#8c4a50" style="fill:#000000"/></g></g> </svg>
