<?xml version="1.0" encoding="iso-8859-1"?>
<!-- Generator: Adobe Illustrator 19.0.0, SVG Export Plug-In . SVG Version: 6.00 Build 0)  -->
<svg version="1.1" id="Capa_1" xmlns="http://www.w3.org/2000/svg" xmlns:xlink="http://www.w3.org/1999/xlink" x="0px" y="0px"
	 viewBox="0 0 483.246 483.246" style="enable-background:new 0 0 483.246 483.246;" xml:space="preserve">
<path style="fill:#A0D92A;" d="M122.706,361.623l-24-40l-64-24l48-8l-32-72l40,32l24-24v64l40,64c0,0,32-72-8-128s-128-64-128-64
	s-24,88,0,144S122.706,361.623,122.706,361.623z"/>
<path style="fill:#2580A6;" d="M242.706,385.623l-18.8,30.08c-3.6,5.76-4.16,12.24-2.4,17.92H118.548
	c-5.167,19.665,9.512,40,30.934,40h93.224v-80V385.623z"/>
<path style="fill:#20557D;" d="M366.864,433.623H263.906c0.64-2,0.96-4.08,0.96-6.24c0-3.92-1.04-7.92-3.36-11.68l-18.8-30.08v8v80
	h93.224C357.352,473.623,372.031,453.288,366.864,433.623z"/>
<path style="fill:#D0DFEA;" d="M261.506,239.703c9.229,14.766-1.387,33.92-18.8,33.92v64v16v16c0-17.673,14.327-32,32-32h16
	c0,17.673-14.327,32-32,32h-16v16l18.8,30.08c2.32,3.76,3.36,7.76,3.36,11.68c0,2.16-0.32,4.24-0.96,6.24h102.958
	c-0.512-1.948-1.15-3.892-2.065-5.807l-66.092-138.193v-96h-32h32c8.836,0,16-7.164,16-16c0-8.837-7.164-16-16-16h-56v48
	L261.506,239.703z"/>
<path style="fill:#FFFFFF;" d="M223.906,415.703l18.8-30.08v-16v-16h-16c-17.673,0-32-14.327-32-32h16c17.673,0,32,14.327,32,32v-16
	v-64c-17.413,0-28.029-19.154-18.8-33.92l18.8-30.08v-48h-56c-8.836,0-16,7.163-16,16c0,8.836,7.164,16,16,16h32h-32v96
	l-66.092,138.193c-0.916,1.915-1.554,3.858-2.065,5.807h102.958C219.746,427.943,220.306,421.463,223.906,415.703z M154.706,417.623
	l8-16L154.706,417.623z M170.706,385.623l16-32L170.706,385.623z"/>
<path style="fill:#2580A6;" d="M223.906,239.703c-9.229,14.766,1.387,33.92,18.8,33.92v-64L223.906,239.703z"/>
<path style="fill:#20557D;" d="M261.506,239.703l-18.8-30.08v64C260.119,273.623,270.735,254.469,261.506,239.703z"/>
<polygon style="fill:#D0DFEA;" points="306.706,81.623 298.706,73.623 250.706,121.623 242.706,121.623 242.706,129.623 
	266.706,129.623 314.706,81.623 310.724,77.641 "/>
<path style="fill:#20557D;" d="M354.706,17.907c-4.478-4.478-10.093-7.045-15.912-7.893c10.946,11.054,10.925,28.88-0.088,39.893
	l-27.982,27.734l3.982,3.982l8,8l32-31.716C365.752,46.862,365.752,28.953,354.706,17.907z"/>
<polygon style="fill:#FFFFFF;" points="298.706,73.623 286.706,61.623 242.706,105.623 242.706,121.623 250.706,121.623 "/>
<polygon style="fill:#20557D;" points="286.706,61.623 298.706,73.623 306.706,81.623 310.724,77.641 290.706,57.623 "/>
<path style="fill:#2580A6;" d="M314.706,17.907l-32,31.716l8,8l20.018,20.018l27.982-27.734
	c11.013-11.013,11.034-28.839,0.088-39.893C330.259,8.772,321.274,11.34,314.706,17.907z"/>
<path style="fill:#A0D92A;" d="M474.706,241.904c0,0-72-24-120,16s-24,95.719-24,95.719l32-31.719l16-48l8,24l56-24l-80,88
	c0,0,36.165,21.863,72-8C482.706,313.904,474.706,241.904,474.706,241.904z"/>
<g>
	<path style="fill:#F1E200;" d="M290.706,337.623h-16c-17.673,0-32,14.327-32,32h16
		C276.379,369.623,290.706,355.296,290.706,337.623z"/>
	<path style="fill:#F1E200;" d="M210.706,321.623h-16c0,17.673,14.327,32,32,32h16C242.706,335.95,228.379,321.623,210.706,321.623z
		"/>
</g>
<path style="fill:#C4B800;" d="M181.703,14.627c3.089,5.675,5.003,12.081,5.003,18.997c0,22.091-17.909,40-40,40
	c-6.916,0-13.322-1.915-18.997-5.003c6.778,12.453,19.821,21.003,34.997,21.003c22.091,0,40-17.909,40-40
	C202.706,34.447,194.155,21.405,181.703,14.627z"/>
<path style="fill:#F1E200;" d="M186.706,33.623c0-6.916-1.915-13.322-5.003-18.997c-5.675-3.089-12.081-5.003-18.997-5.003
	c-13.146,0-24.708,6.428-32,16.22v15.78v-15.78c-4.961,6.662-8,14.835-8,23.78c0,6.916,1.915,13.322,5.003,18.997
	c5.675,3.089,12.081,5.003,18.997,5.003C168.797,73.623,186.706,55.715,186.706,33.623z M146.706,41.623v16V41.623z"/>
<path style="fill:#C4B800;" d="M401.585,138.745c0.66,2.193,1.122,4.471,1.122,6.878c0,13.255-10.745,24-24,24
	c-2.408,0-4.686-0.462-6.878-1.122c2.972,9.878,12.031,17.122,22.878,17.122c13.255,0,24-10.745,24-24
	C418.706,150.776,411.463,141.717,401.585,138.745z"/>
<path style="fill:#F1E200;" d="M402.706,145.623c0-2.408-0.462-4.686-1.122-6.878c-2.193-0.66-4.471-1.122-6.878-1.122
	c-13.255,0-24,10.745-24,24c0,2.408,0.462,4.686,1.122,6.878c2.193,0.66,4.471,1.122,6.878,1.122
	C391.961,169.623,402.706,158.878,402.706,145.623z"/>
<path d="M242.706,281.623c11.133,0,20.992-5.813,26.391-15.547c5.391-9.734,5.094-21.18-0.813-30.617l-18.797-30.078
	c-2.922-4.672-10.641-4.672-13.563,0l-18.797,30.078c-5.906,9.438-6.203,20.883-0.813,30.617
	C221.714,275.811,231.573,281.623,242.706,281.623z M230.691,243.944l12.016-19.227l12.016,19.227
	c2.773,4.43,2.914,9.805,0.383,14.375c-2.539,4.578-7.172,7.305-12.398,7.305s-9.859-2.727-12.398-7.305
	C227.776,253.748,227.917,248.373,230.691,243.944z"/>
<path d="M242.706,137.623h24c2.125,0,4.156-0.844,5.656-2.344l42.344-42.344l2.344,2.344l16,16l11.313-11.313l-10.319-10.319
	l26.319-26.087c6.852-6.844,10.625-15.961,10.625-25.656c0-9.688-3.773-18.805-10.625-25.656
	c-14.148-14.133-37.156-14.141-51.289-0.023l-26.342,26.111l-10.369-10.369L261.05,39.28l16,16l2.344,2.344L237.05,99.967
	c-1.5,1.5-2.344,3.531-2.344,5.656v24C234.706,134.045,238.284,137.623,242.706,137.623z M320.362,23.561
	c7.906-7.906,20.781-7.906,28.688,0c3.828,3.836,5.938,8.93,5.938,14.344c0,5.422-2.109,10.516-5.914,14.32L322.73,78.334
	l-2.367-2.367l-24-24l-2.32-2.32L320.362,23.561z M250.706,108.936l40-40l12.688,12.688l-40,40h-12.688V108.936z"/>
<path d="M482.659,241.022c-0.344-3.102-2.461-5.719-5.422-6.703c-3.109-1.039-76.805-24.922-127.656,17.438
	c-22.009,18.344-30.057,39.843-32.083,58.618l-10.792-22.563v-87.555c9.313-3.305,16-12.203,16-22.633c0-13.234-10.766-24-24-24
	h-112c-13.234,0-24,10.766-24,24c0,10.43,6.688,19.328,16,22.633v87.555l-3.9,8.155c0.561-23.478-4.08-50.476-21.592-74.991
	c-41.648-58.313-130.039-66.977-133.781-67.32c-3.922-0.375-7.422,2.125-8.445,5.867c-1.008,3.703-24.445,91.352,0.367,149.25
	c25.781,60.156,107.867,60.852,111.352,60.852c2.883,0,5.539-1.547,6.961-4.055c1.422-2.516,1.383-5.594-0.102-8.063l-24-40
	c-0.93-1.547-2.359-2.742-4.047-3.375l-36.063-13.523l18.563-3.094c2.445-0.406,4.563-1.922,5.734-4.102s1.266-4.773,0.266-7.039
	l-18.664-41.984l14.352,11.484c3.18,2.531,7.773,2.297,10.656-0.594l10.344-10.344v44.688c0,1.5,0.422,2.969,1.219,4.242
	l38.456,61.53l-32.987,68.97c-5.961,12.469-5.117,26.891,2.25,38.586c7.367,11.688,20.016,18.672,33.836,18.672h186.453
	c13.82,0,26.469-6.984,33.836-18.672c7.367-11.695,8.211-26.117,2.25-38.586l-32.585-68.129l28.906-28.652
	c0.891-0.883,1.563-1.961,1.953-3.148l8.414-25.234l0.414,1.234c0.703,2.117,2.266,3.852,4.313,4.766
	c2.039,0.914,4.383,0.938,6.422,0.055l22.18-9.5l-55.25,60.766c-1.609,1.773-2.336,4.172-1.992,6.539s1.727,4.453,3.773,5.688
	c7.156,4.328,19.648,8.813,34.352,8.813c14.484,0,31.125-4.359,46.914-17.508C490.55,317.78,483.003,244.139,482.659,241.022z
	 M117.769,218.233c-2.992-1.25-6.43-0.555-8.719,1.734l-18.938,18.938l-34.406-27.531c-2.883-2.297-6.961-2.336-9.891-0.086
	c-2.914,2.258-3.922,6.211-2.422,9.586l27.805,62.555l-37.805,6.305c-3.57,0.594-6.297,3.516-6.648,7.117s1.766,6.992,5.148,8.266
	l61.391,23.016l14.586,24.313c-22.977-2.977-66.141-13.398-81.813-49.969c-18.883-44.063-6.125-110.742-1.273-131.992
	c20.844,3.172,84.242,16.156,115.414,59.789c26.219,36.711,18.875,81.75,12.383,104.852l-29.875-47.797v-61.703
	C122.706,222.389,120.761,219.467,117.769,218.233z M193.925,293.076c0.516-1.078,0.781-2.258,0.781-3.453v-88h24v-16h-32
	c-4.414,0-8-3.586-8-8s3.586-8,8-8h112c4.414,0,8,3.586,8,8s-3.586,8-8,8h-32v16h24v88c0,1.195,0.266,2.375,0.781,3.453
	l63.392,132.547h-82.072c-0.297-4.953-1.836-9.805-4.523-14.164l-17.578-28.128v-5.708h8c22.055,0,40-17.945,40-40
	c0-4.422-3.578-8-8-8h-16c-9.04,0-17.294,3.128-24,8.205v-0.205h-3.391c-6.19-14.102-20.249-24-36.609-24h-16c-4.422,0-8,3.578-8,8
	c0,22.055,17.945,40,40,40h8v21.708l-17.578,28.128c-2.711,4.344-4.242,9.219-4.523,14.164h-82.072L193.925,293.076z
	 M252.073,361.623c3.305-9.313,12.203-16,22.633-16h6.633c-3.305,9.313-12.203,16-22.633,16H252.073z M233.339,345.623h-6.633
	c-10.43,0-19.328-6.688-22.633-16h6.633C221.136,329.623,230.034,336.311,233.339,345.623z M356.237,454.42
	c-4.422,7.016-12.016,11.203-20.305,11.203H149.48c-8.289,0-15.883-4.188-20.305-11.203c-2.47-3.918-3.581-8.346-3.577-12.797
	h95.905c2.539,0,4.93-1.211,6.438-3.25c1.508-2.047,1.953-4.688,1.203-7.117c-1.18-3.813-0.625-7.828,1.547-11.313l12.016-19.227
	l11.984,19.18c1.445,2.336,2.172,4.859,2.172,7.484c0,1.359-0.188,2.602-0.57,3.805c-0.781,2.43-0.352,5.086,1.156,7.156
	c1.508,2.063,3.906,3.281,6.461,3.281h95.905C359.818,446.074,358.707,450.502,356.237,454.42z M429.589,347.756
	c-20.961,17.469-41.805,14.914-53.43,11.242l72.469-79.711c2.531-2.789,2.781-6.961,0.594-10.023
	c-2.188-3.078-6.234-4.195-9.664-2.711l-48.008,20.57l-5.258-15.75c-1.086-3.266-4.141-5.469-7.586-5.469s-6.5,2.203-7.586,5.469
	l-15.398,46.195l-21.133,20.945c-3.555-17.125-4.906-49.344,25.242-74.461c36.898-30.766,90.625-20.273,107.258-15.992
	C467.73,264.725,466.542,316.967,429.589,347.756z"/>
<rect x="160.816" y="361.621" transform="matrix(-0.4472 0.8944 -0.8944 -0.4472 589.2216 375.0819)" width="35.776" height="16"/>
<rect x="149.761" y="401.638" transform="matrix(-0.4472 0.8944 -0.8944 -0.4472 596.0712 450.8825)" width="17.888" height="16"/>
<path d="M162.706,97.623c26.469,0,48-21.531,48-48s-21.531-48-48-48s-48,21.531-48,48S136.237,97.623,162.706,97.623z
	 M162.706,17.623c17.648,0,32,14.352,32,32s-14.352,32-32,32s-32-14.352-32-32S145.058,17.623,162.706,17.623z"/>
<path d="M394.706,193.623c17.648,0,32-14.352,32-32s-14.352-32-32-32s-32,14.352-32,32S377.058,193.623,394.706,193.623z
	 M394.706,145.623c8.82,0,16,7.18,16,16s-7.18,16-16,16s-16-7.18-16-16S385.886,145.623,394.706,145.623z"/>
<polygon points="450.706,49.623 466.706,49.623 466.706,33.623 482.706,33.623 482.706,17.623 466.706,17.623 466.706,1.623 
	450.706,1.623 450.706,17.623 434.706,17.623 434.706,33.623 450.706,33.623 "/>
<rect x="138.706" y="41.623" width="16" height="16"/>
<polygon points="42.706,97.623 58.706,97.623 58.706,81.623 74.706,81.623 74.706,65.623 58.706,65.623 58.706,49.623 
	42.706,49.623 42.706,65.623 26.706,65.623 26.706,81.623 42.706,81.623 "/>
<g>
</g>
<g>
</g>
<g>
</g>
<g>
</g>
<g>
</g>
<g>
</g>
<g>
</g>
<g>
</g>
<g>
</g>
<g>
</g>
<g>
</g>
<g>
</g>
<g>
</g>
<g>
</g>
<g>
</g>
</svg>
