<svg id="Capa_1" enable-background="new 0 0 512 512" height="512" viewBox="0 0 512 512" width="512" xmlns="http://www.w3.org/2000/svg"><g><path d="m274.304 386.399 30-307.65h15.696v-45h-50.185v15h35.185v15h-35.185v15h19.418l-28.538 292.65h-201.391l-28.537-292.649h59.05v-15h-74.817v-15h89.816v7.5 231.052h90v-30h60v-218.064l-20.518-35.488h-141.312l-17.321 30h-75.665v45h15.696l29.999 307.65h228.609zm-172.658-367.649h123.998l14.172 24.512v199.04h-45v-22.5h-15v22.5 7.5 22.5h-60v-216.052-15-7.5h-26.83z"/><path d="m512 425.75h-63.561l-17.321-30h-24.51v-324.5-7.5-59.999h-45v59.999 7.5 324.5h-24.51l-17.32 30h-63.561v60h15.785v22.5h15v-22.5h15v22.5h15v-22.5h15v22.5h15v-22.5h15v22.5h15v-22.5h15v22.5h15v-22.5h15v22.5h15v-22.5h15v22.5h15v-22.5h15v22.5h15v-22.5h15v-60zm-135.392-406.999h15v44.999h-15zm0 59.999h15v317h-15zm-30.849 332h76.699l8.66 15h-94.02zm-74.542 30h225.783v30h-225.783z"/><path d="m179.816 189.803h15v15h-15z"/><path d="m230 341.399h15v15h-15z"/><path d="m52.5 93.749h15v15h-15z"/><path d="m170 341.399h45v15h-45z"/></g></svg>