<svg id="Capa_1" enable-background="new 0 0 512 512" height="512" viewBox="0 0 512 512" width="512" xmlns="http://www.w3.org/2000/svg"><g><path d="m437.022 74.978c-48.349-48.35-112.638-74.978-181.022-74.978s-132.673 26.628-181.022 74.978-74.978 112.638-74.978 181.022 26.628 132.673 74.978 181.022 112.638 74.978 181.022 74.978 132.673-26.628 181.022-74.978 74.978-112.638 74.978-181.022-26.628-132.673-74.978-181.022zm-14.142 347.902c-44.572 44.573-103.838 69.12-166.88 69.12s-122.308-24.547-166.88-69.12c-44.573-44.572-69.12-103.838-69.12-166.88s24.547-122.308 69.12-166.88c44.572-44.573 103.838-69.12 166.88-69.12s122.308 24.547 166.88 69.12c44.573 44.572 69.12 103.838 69.12 166.88s-24.547 122.308-69.12 166.88z"/><path d="m344.188 359.742-149.286-149.285-90.177-90.177c-2.001-2-4.765-3.062-7.58-2.916-2.826.145-5.458 1.479-7.245 3.672-33.269 40.847-50.193 92.446-47.655 145.294 2.556 53.22 24.727 103.293 62.429 140.996 37.703 37.702 87.776 59.873 140.996 62.429 3.464.166 6.922.249 10.372.249 49.192 0 96.752-16.816 134.922-47.904 2.193-1.787 3.527-4.419 3.672-7.245.144-2.825-.916-5.579-2.916-7.58zm-20.911 7.375c-7.743 7.753-16.471 14.069-26.121 18.965l-.418-.366c-30.542-26.767-47.366-41.511-55.759-69.873-1.007-3.402-3.741-6.017-7.187-6.869-3.44-.853-7.082.184-9.561 2.725-20.243 20.752-33.531 41.278-40.304 62.326-13.773-12.978-23.147-30.274-25.346-49.727-2.937-25.856 3.025-50.062 18.23-74.005 2.229-3.517 4.881-6.982 7.687-10.651 1.548-2.023 3.183-4.16 4.854-6.449zm-47.279 26.998c-7.506 2.005-15.427 3.345-23.78 3.971-18.415 1.391-36.102-2.952-51.085-11.419 3.989-16.381 12.77-32.596 26.641-49.132 9.993 21.692 25.615 36.643 48.224 56.58zm-157.182-.931c-67.985-67.986-75.869-173.911-20.181-250.709l76.382 76.382c-2.13 3.04-4.289 5.868-6.405 8.634-3.081 4.028-5.991 7.833-8.688 12.087-17.749 27.948-24.688 56.398-21.217 86.972 5.894 52.111 52.896 91.792 106.739 91.792 2.738 0 5.5-.104 8.27-.313 16.26-1.218 31.426-4.861 45.217-10.789.383-.142.757-.309 1.123-.499 13.991-6.175 26.54-14.723 37.347-25.498l32.121 32.121c-76.796 55.688-182.722 47.804-250.708-20.18z"/><path d="m469.987 253.571c-.566-50.071-18.745-98.545-51.186-136.491-3.588-4.198-9.901-4.693-14.099-1.103-4.198 3.589-4.691 9.9-1.103 14.099 58.473 68.396 61.961 167.383 9.762 239.447l-42.762-42.762c4.668-15.38 4.689-30.621.266-50.828-1.176-5.389-2.844-10.091-4.456-14.638-5.065-14.284-10.303-29.055-2.753-72.05.538-3.064-.381-6.204-2.485-8.495-2.104-2.29-5.161-3.482-8.254-3.194-27.658 2.471-44.864 17.046-56.83 36.795-2.025-20.508-5.876-38.027-13.118-53.846-12.666-27.664-34.737-47.972-71.565-65.845-3.162-1.535-6.896-1.296-9.838.626s-4.657 5.247-4.521 8.759c.709 18.24.437 34.219-.825 48.336l-53.734-53.735c55.458-39.972 129.905-47.911 192.775-19.79 5.043 2.258 10.957-.004 13.212-5.045s-.004-10.956-5.046-13.212c-35.787-16.008-75.35-21.856-114.411-16.916-39.681 5.02-77.02 21.001-107.98 46.216-2.194 1.786-3.528 4.419-3.673 7.244-.144 2.826.916 5.58 2.916 7.581l231.911 231.912.012.012 55.071 55.071c1.88 1.88 4.426 2.929 7.07 2.929.17 0 .34-.004.51-.013 2.825-.145 5.458-1.479 7.244-3.672 31.449-38.604 48.456-87.397 47.89-137.392zm-128.214-53.528c-4.882 37.847.979 54.377 5.788 67.938 1.533 4.325 2.858 8.061 3.767 12.224 2.741 12.522 3.283 21.86 2.428 29.712l-54.179-54.179c11.169-32.919 23.503-49.548 42.196-55.695zm-124.348-79.572c46.392 26.98 57.384 59.579 60.023 113.138l-63.266-63.267c2.271-14.545 3.346-31.007 3.243-49.871z"/><path d="m369.688 98.609c1.949 1.949 4.499 2.922 7.051 2.922 2.56 0 5.121-.98 7.077-2.937 3.905-3.905 3.892-10.251-.014-14.156-3.906-3.904-10.236-3.904-14.143 0-3.905 3.905-3.905 10.237 0 14.143z"/></g></svg>