<svg id="Capa_1" enable-background="new 0 0 512 512" height="512" viewBox="0 0 512 512" width="512" xmlns="http://www.w3.org/2000/svg"><g><path d="m497 337h-322v-322c0-8.284-6.716-15-15-15h-145c-8.284 0-15 6.716-15 15v482c0 8.284 6.716 15 15 15h482c8.284 0 15-6.716 15-15v-145c0-8.284-6.716-15-15-15zm-467-307h115v43h-33c-8.284 0-15 6.716-15 15s6.716 15 15 15h33v34h-17c-8.284 0-15 6.716-15 15s6.716 15 15 15h17v34h-33c-8.284 0-15 6.716-15 15s6.716 15 15 15h33v34h-17c-8.284 0-15 6.716-15 15s6.716 15 15 15h17v42h-115zm0 337h115v115h-115zm452 115h-307v-115h42v33c0 8.284 6.716 15 15 15s15-6.716 15-15v-33h34v17c0 8.284 6.716 15 15 15s15-6.716 15-15v-17h34v33c0 8.284 6.716 15 15 15s15-6.716 15-15v-33h34v17c0 8.284 6.716 15 15 15s15-6.716 15-15v-17h43z"/><path d="m102.71 421.07c-1.87-8.926-10.711-13.914-19.07-11.42-8.616 2.808-12.195 11.286-9.99 18.71 2.843 8.695 11.36 12.182 18.71 9.99 7.919-2.582 11.71-10.014 10.35-17.28z"/></g></svg>